<svg width="47" height="54" viewBox="0 0 47 54" fill="none" xmlns="http://www.w3.org/2000/svg">
<path d="M33.4286 12C33.4286 17.5228 28.9514 22 23.4286 22C17.9057 22 13.4286 17.5228 13.4286 12C13.4286 6.47715 17.9057 2 23.4286 2C28.9514 2 33.4286 6.47715 33.4286 12Z" fill="white"/>
<path d="M2 52C2 40.1653 11.5939 30.5714 23.4286 30.5714C35.2632 30.5714 44.8571 40.1653 44.8571 52H2Z" fill="white"/>
<path d="M33.4286 12C33.4286 17.5228 28.9514 22 23.4286 22C17.9057 22 13.4286 17.5228 13.4286 12C13.4286 6.47715 17.9057 2 23.4286 2C28.9514 2 33.4286 6.47715 33.4286 12Z" stroke="white" stroke-width="3" stroke-linecap="round" stroke-linejoin="round"/>
<path d="M2 52C2 40.1653 11.5939 30.5714 23.4286 30.5714C35.2632 30.5714 44.8571 40.1653 44.8571 52H2Z" stroke="white" stroke-width="3" stroke-linecap="round" stroke-linejoin="round"/>
</svg>
